# xmcd
#
# Track frame offsets: 
#        150
#        13700
#        34418
#        48590
#        66615
#        81908
#        98955
#        112853
#        125313
#        145233
#
# Disc length: 2182 seconds
#
# Revision: 3
# Processed by: cddbd v1.5.2PL0 Copyright (c) Steve Scherf et al.
# Submitted via: ExactAudioCopy v0.99pb4
#
DISCID=8c08840a
DTITLE=Paul Desmond - From The Hot Afternoon
DYEAR=1969
DGENRE=Jazz
TTITLE0=October (Outubro)
TTITLE1=Round'n Round (Gira Giro)
TTITLE2=Faithful Brother
TTITLE3=To Say Goodbye
TTITLE4=From The Hot Afternoon
TTITLE5=Circles
TTITLE6=Martha and Romao
TTITLE7=Catavento
TTITLE8=Latin Chant (Canto Latino)
TTITLE9=Crystal Illusions
EXTD=From The Hot Afternoon\nPaul Desmond\n1988 A&M Records, Inc.\n\nO
EXTD=riginally Released 1969\nCD Edition Released 1988\nVerve "By Requ
EXTD=est" Expanded CD Edition Released April 4, 2000\n\nAMG EXPERT REV
EXTD=IEW: Paul Desmond's first genuine all-Brazilian album under the C
EXTD=reed Taylor signature was a beauty, a collection of songs by the 
EXTD=then-moderately known Edu Lobo and the emerging giant Milton Nasc
EXTD=imento, then only in his early twenties. All Desmond has to do is
EXTD=sit back and ride the Brazilian grooves while lyrically ruminati
EXTD=ng on whatever pops into his head. It sounds so effortless -- unt
EXTD=il you try it yourself. The swirling, often gorgeous orchestral a
EXTD=rrangements are by Don Sebesky (one CD edition mistakenly gives C
EXTD=laus Ogerman credit on the cover), Airto Moreira leads the samba-
EXTD=flavored percussion forces, and Lobo and his wife Wanda de Sah ap
EXTD=pear on three of Lobo's four songs. Lobo's "To Say Goodbye," "Cir
EXTD=cles," and "Martha and Romao" have exactly the brand of wistful s
EXTD=adness that Desmond could communicate so well - on the former, de 
EXTD=Sah has to sing well below the register with which she is comfort
EXTD=able, and the strain is painfully obvious. Some of Nascimento's b
EXTD=est early tunes are here, including the tense title track, the po
EXTD=pping "Catavento," and "Canto Latino." "Catavento" inspires a par
EXTD=ticularly inventive solo from Desmond where he pulls out one of h
EXTD=is age-old tricks, quoting "St. Thomas." This 2000 Verve "By Requ
EXTD=est" edition adds no less than six alternate takes to the package
EXTD=- Richard S. Ginell
EXTT0=
EXTT1=
EXTT2=
EXTT3=
EXTT4=
EXTT5=
EXTT6=
EXTT7=
EXTT8=
EXTT9=
PLAYORDER=
